<svg width="86" height="49" viewBox="0 0 86 49" fill="none" xmlns="http://www.w3.org/2000/svg">
<path d="M1.4375 11.3466V9.34659L9.4375 5.82386V8.125L3.96023 10.3239L4.03409 10.2045V10.4886L3.96023 10.3693L9.4375 12.5682V14.8693L1.4375 11.3466ZM17.5221 15.16C16.6688 15.16 16.0235 14.92 15.5861 14.44C15.1488 13.9493 14.9301 13.2507 14.9301 12.344V11.704H16.5941V12.472C16.5941 13.1973 16.8981 13.56 17.5061 13.56C17.8048 13.56 18.0288 13.4747 18.1781 13.304C18.3381 13.1227 18.4181 12.8347 18.4181 12.44C18.4181 11.9707 18.3115 11.56 18.0981 11.208C17.8848 10.8453 17.4901 10.4133 16.9141 9.912C16.1888 9.272 15.6821 8.696 15.3941 8.184C15.1061 7.66133 14.9621 7.07467 14.9621 6.424C14.9621 5.53867 15.1861 4.856 15.6341 4.376C16.0821 3.88533 16.7328 3.64 17.5861 3.64C18.4288 3.64 19.0635 3.88533 19.4901 4.376C19.9275 4.856 20.1461 5.54933 20.1461 6.456V6.92H18.4821V6.344C18.4821 5.96 18.4075 5.68267 18.2581 5.512C18.1088 5.33067 17.8901 5.24 17.6021 5.24C17.0155 5.24 16.7221 5.59733 16.7221 6.312C16.7221 6.71733 16.8288 7.096 17.0421 7.448C17.2661 7.8 17.6661 8.22667 18.2421 8.728C18.9781 9.368 19.4848 9.94933 19.7621 10.472C20.0395 10.9947 20.1781 11.608 20.1781 12.312C20.1781 13.2293 19.9488 13.9333 19.4901 14.424C19.0421 14.9147 18.3861 15.16 17.5221 15.16ZM21.1873 3.8H25.9873V5.4H22.9473V8.36H25.3633V9.96H22.9473V13.4H25.9873V15H21.1873V3.8ZM26.9998 3.8H29.6558C30.5624 3.8 31.2238 4.01333 31.6398 4.44C32.0558 4.856 32.2638 5.50133 32.2638 6.376V6.824C32.2638 7.4 32.1678 7.86933 31.9758 8.232C31.7944 8.59467 31.5118 8.856 31.1278 9.016V9.048C32.0024 9.34667 32.4398 10.1253 32.4398 11.384V12.344C32.4398 13.208 32.2104 13.8693 31.7518 14.328C31.3038 14.776 30.6424 15 29.7678 15H26.9998V3.8ZM29.4478 8.36C29.7998 8.36 30.0611 8.26933 30.2318 8.088C30.4131 7.90667 30.5038 7.60267 30.5038 7.176V6.552C30.5038 6.14667 30.4291 5.85333 30.2798 5.672C30.1411 5.49067 29.9171 5.4 29.6078 5.4H28.7598V8.36H29.4478ZM29.7678 13.4C30.0771 13.4 30.3064 13.32 30.4557 13.16C30.6051 12.9893 30.6798 12.7013 30.6798 12.296V11.32C30.6798 10.808 30.5891 10.456 30.4078 10.264C30.2371 10.0613 29.9491 9.96 29.5438 9.96H28.7598V13.4H29.7678ZM34.8285 3.8H37.2125L39.0365 15H37.2765L36.9565 12.776V12.808H34.9565L34.6365 15H33.0045L34.8285 3.8ZM36.7485 11.288L35.9645 5.752H35.9325L35.1645 11.288H36.7485ZM42.1315 15.16C41.2782 15.16 40.6328 14.92 40.1955 14.44C39.7582 13.9493 39.5395 13.2507 39.5395 12.344V11.704H41.2035V12.472C41.2035 13.1973 41.5075 13.56 42.1155 13.56C42.4142 13.56 42.6382 13.4747 42.7875 13.304C42.9475 13.1227 43.0275 12.8347 43.0275 12.44C43.0275 11.9707 42.9208 11.56 42.7075 11.208C42.4942 10.8453 42.0995 10.4133 41.5235 9.912C40.7982 9.272 40.2915 8.696 40.0035 8.184C39.7155 7.66133 39.5715 7.07467 39.5715 6.424C39.5715 5.53867 39.7955 4.856 40.2435 4.376C40.6915 3.88533 41.3422 3.64 42.1955 3.64C43.0382 3.64 43.6728 3.88533 44.0995 4.376C44.5368 4.856 44.7555 5.54933 44.7555 6.456V6.92H43.0915V6.344C43.0915 5.96 43.0168 5.68267 42.8675 5.512C42.7182 5.33067 42.4995 5.24 42.2115 5.24C41.6248 5.24 41.3315 5.59733 41.3315 6.312C41.3315 6.71733 41.4382 7.096 41.6515 7.448C41.8755 7.8 42.2755 8.22667 42.8515 8.728C43.5875 9.368 44.0942 9.94933 44.3715 10.472C44.6488 10.9947 44.7875 11.608 44.7875 12.312C44.7875 13.2293 44.5582 13.9333 44.0995 14.424C43.6515 14.9147 42.9955 15.16 42.1315 15.16ZM15.567 22.8H17.343L18.495 31.488H18.527L19.679 22.8H21.295L19.599 34H17.263L15.567 22.8ZM22.1404 22.8H26.9404V24.4H23.9004V27.36H26.3164V28.96H23.9004V32.4H26.9404V34H22.1404V22.8ZM27.9529 22.8H29.7129V32.4H32.6089V34H27.9529V22.8ZM33.4529 22.8H38.2529V24.4H35.2129V27.36H37.6289V28.96H35.2129V32.4H38.2529V34H33.4529V22.8ZM38.9446 32.432L42.2086 24.4H39.1046V22.8H44.0966V24.368L40.8326 32.4H44.0966V34H38.9446V32.432ZM45.2498 32.304H46.9457V34H45.2498V32.304ZM48.2654 22.8H50.9534C51.828 22.8 52.484 23.0347 52.9214 23.504C53.3587 23.9733 53.5774 24.6613 53.5774 25.568V31.232C53.5774 32.1387 53.3587 32.8267 52.9214 33.296C52.484 33.7653 51.828 34 50.9534 34H48.2654V22.8ZM50.9214 32.4C51.2094 32.4 51.428 32.3147 51.5774 32.144C51.7374 31.9733 51.8174 31.696 51.8174 31.312V25.488C51.8174 25.104 51.7374 24.8267 51.5774 24.656C51.428 24.4853 51.2094 24.4 50.9214 24.4H50.0254V32.4H50.9214ZM54.7654 22.8H59.5654V24.4H56.5254V27.36H58.9414V28.96H56.5254V32.4H59.5654V34H54.7654V22.8ZM60.1139 22.8H61.8899L63.0419 31.488H63.0739L64.2259 22.8H65.8419L64.1459 34H61.8099L60.1139 22.8ZM74.6278 21.8182L70.8778 35.75H68.7926L72.5426 21.8182H74.6278ZM84.2656 30.3466L76.2656 33.8693V31.5682L81.7429 29.3693L81.669 29.4886V29.2045L81.7429 29.3239L76.2656 27.125V24.8239L84.2656 28.3466V30.3466Z" fill="white"/>
<path d="M3.7533 39.9503H0.790616V41.9353H2.97543V42.4326H0.790616V45H0.20828V39.4529H3.7533V39.9503ZM8.76478 45H8.02517L6.40569 42.6239H5.54281V45H4.96048V39.4529H6.78824C7.3975 39.4529 7.86932 39.5861 8.2037 39.8525C8.53808 40.116 8.70527 40.5113 8.70527 41.0384C8.70527 41.2708 8.66418 41.4805 8.582 41.6675C8.49983 41.8517 8.38789 42.009 8.24621 42.1393C8.10452 42.2697 7.93449 42.3745 7.73613 42.4539C7.5406 42.5332 7.32665 42.5814 7.09429 42.5984L8.76478 45ZM8.10168 41.0384C8.10168 40.6615 7.98408 40.3867 7.74888 40.2138C7.51652 40.0381 7.1963 39.9503 6.78824 39.9503H5.54281V42.1266H6.78824C7.1963 42.1266 7.51652 42.0416 7.74888 41.8715C7.98408 41.6987 8.10168 41.421 8.10168 41.0384ZM13.6147 42.2328C13.6147 42.6041 13.5765 42.9625 13.5 43.3083C13.4235 43.654 13.3016 43.9586 13.1344 44.2221C12.9672 44.4857 12.7476 44.6982 12.4756 44.8597C12.2064 45.0184 11.8777 45.0978 11.4894 45.0978C11.1012 45.0978 10.7711 45.0184 10.499 44.8597C10.2298 44.6982 10.0102 44.4857 9.84019 44.2221C9.673 43.9586 9.55256 43.654 9.47889 43.3083C9.40237 42.9625 9.36412 42.6041 9.36412 42.2328C9.36412 41.8616 9.40237 41.5032 9.47889 41.1574C9.55256 40.8117 9.67441 40.5057 9.84444 40.2393C10.0173 39.9729 10.2383 39.7604 10.5075 39.6017C10.7796 39.4402 11.1069 39.3594 11.4894 39.3594C11.872 39.3594 12.1979 39.4402 12.4671 39.6017C12.7391 39.7604 12.9587 39.9729 13.1259 40.2393C13.2931 40.5057 13.4164 40.8117 13.4957 41.1574C13.5751 41.5032 13.6147 41.8616 13.6147 42.2328ZM13.0282 42.2328C13.0282 41.8673 12.9927 41.5386 12.9219 41.2467C12.8539 40.952 12.7547 40.7012 12.6243 40.4943C12.494 40.2875 12.3325 40.1302 12.1398 40.0225C11.9499 39.912 11.7331 39.8567 11.4894 39.8567C11.1862 39.8567 10.9354 39.9276 10.7371 40.0693C10.5415 40.211 10.3843 40.3966 10.2653 40.6261C10.1462 40.8556 10.0626 41.1107 10.0145 41.3912C9.96912 41.6718 9.94645 41.9523 9.94645 42.2328C9.94645 42.5106 9.96912 42.7911 10.0145 43.0745C10.0626 43.355 10.1462 43.6086 10.2653 43.8353C10.3843 44.0592 10.5415 44.2434 10.7371 44.3879C10.9354 44.5296 11.1862 44.6004 11.4894 44.6004C11.7898 44.6004 12.0392 44.5296 12.2375 44.3879C12.4359 44.2434 12.5946 44.0592 12.7136 43.8353C12.8326 43.6086 12.9148 43.355 12.9601 43.0745C13.0055 42.7911 13.0282 42.5106 13.0282 42.2328ZM18.0099 45H17.2873L15.0472 40.3073V45H14.4649V39.4529H15.2852L17.4233 43.9288V39.4529H18.0099V45ZM22.9704 41.3275H22.473V39.9503H21.2829V44.5027H22.1755V45H19.7994V44.5027H20.6963V39.9503H19.5061V41.3275H19.0088V39.4529H22.9704V41.3275ZM27.5143 45H23.9693V39.4529H27.5143V39.9503H24.5516V41.9353H26.7364V42.4326H24.5516V44.5027H27.5143V45ZM32.2665 45H31.5439L29.3038 40.3073V45H28.7214V39.4529H29.5418L31.6799 43.9288V39.4529H32.2665V45ZM37.4097 42.2328C37.4097 42.6041 37.37 42.9583 37.2907 43.2955C37.2142 43.6299 37.0895 43.9246 36.9166 44.1796C36.7466 44.4318 36.5256 44.6316 36.2536 44.779C35.9843 44.9263 35.6585 45 35.2759 45H33.4736V39.4529H35.2759C35.6528 39.4529 35.9758 39.5295 36.2451 39.6825C36.5171 39.8327 36.7381 40.0353 36.9081 40.2903C37.081 40.5453 37.2071 40.8401 37.2865 41.1744C37.3686 41.5088 37.4097 41.8616 37.4097 42.2328ZM36.8274 42.2328C36.8274 41.5074 36.6899 40.9463 36.4151 40.5496C36.143 40.15 35.7633 39.9503 35.2759 39.9503H34.056V44.5027H35.2759C35.7633 44.5027 36.143 44.3057 36.4151 43.9118C36.6899 43.5179 36.8274 42.9583 36.8274 42.2328ZM46.9141 42.2328C46.9141 42.6041 46.8744 42.9583 46.7951 43.2955C46.7186 43.6299 46.5939 43.9246 46.421 44.1796C46.251 44.4318 46.03 44.6316 45.7579 44.779C45.4887 44.9263 45.1629 45 44.7803 45H42.978V39.4529H44.7803C45.1572 39.4529 45.4802 39.5295 45.7494 39.6825C46.0215 39.8327 46.2425 40.0353 46.4125 40.2903C46.5854 40.5453 46.7115 40.8401 46.7908 41.1744C46.873 41.5088 46.9141 41.8616 46.9141 42.2328ZM46.3318 42.2328C46.3318 41.5074 46.1943 40.9463 45.9195 40.5496C45.6474 40.15 45.2677 39.9503 44.7803 39.9503H43.5604V44.5027H44.7803C45.2677 44.5027 45.6474 44.3057 45.9195 43.9118C46.1943 43.5179 46.3318 42.9583 46.3318 42.2328ZM51.2752 45H47.7302V39.4529H51.2752V39.9503H48.3126V41.9353H50.4974V42.4326H48.3126V44.5027H51.2752V45ZM56.5035 39.4529L54.6502 45H53.8596L52.0234 39.4529H52.6397L54.2592 44.4092L55.8702 39.4529H56.5035ZM60.7796 45H57.2346V39.4529H60.7796V39.9503H57.817V41.9353H60.0018V42.4326H57.817V44.5027H60.7796V45ZM65.5318 45H61.9868V39.4529H62.5691V44.5027H65.5318V45ZM70.6411 42.2328C70.6411 42.6041 70.6028 42.9625 70.5263 43.3083C70.4498 43.654 70.328 43.9586 70.1608 44.2221C69.9936 44.4857 69.774 44.6982 69.5019 44.8597C69.2327 45.0184 68.904 45.0978 68.5158 45.0978C68.1275 45.0978 67.7974 45.0184 67.5254 44.8597C67.2562 44.6982 67.0366 44.4857 66.8665 44.2221C66.6993 43.9586 66.5789 43.654 66.5052 43.3083C66.4287 42.9625 66.3905 42.6041 66.3905 42.2328C66.3905 41.8616 66.4287 41.5032 66.5052 41.1574C66.5789 40.8117 66.7008 40.5057 66.8708 40.2393C67.0436 39.9729 67.2647 39.7604 67.5339 39.6017C67.8059 39.4402 68.1332 39.3594 68.5158 39.3594C68.8983 39.3594 69.2242 39.4402 69.4934 39.6017C69.7655 39.7604 69.9851 39.9729 70.1523 40.2393C70.3195 40.5057 70.4427 40.8117 70.5221 41.1574C70.6014 41.5032 70.6411 41.8616 70.6411 42.2328ZM70.0545 42.2328C70.0545 41.8673 70.0191 41.5386 69.9482 41.2467C69.8802 40.952 69.781 40.7012 69.6507 40.4943C69.5203 40.2875 69.3588 40.1302 69.1661 40.0225C68.9763 39.912 68.7595 39.8567 68.5158 39.8567C68.2126 39.8567 67.9618 39.9276 67.7634 40.0693C67.5679 40.211 67.4106 40.3966 67.2916 40.6261C67.1726 40.8556 67.089 41.1107 67.0408 41.3912C66.9955 41.6718 66.9728 41.9523 66.9728 42.2328C66.9728 42.5106 66.9955 42.7911 67.0408 43.0745C67.089 43.355 67.1726 43.6086 67.2916 43.8353C67.4106 44.0592 67.5679 44.2434 67.7634 44.3879C67.9618 44.5296 68.2126 44.6004 68.5158 44.6004C68.8161 44.6004 69.0655 44.5296 69.2639 44.3879C69.4622 44.2434 69.6209 44.0592 69.74 43.8353C69.859 43.6086 69.9411 43.355 69.9865 43.0745C70.0318 42.7911 70.0545 42.5106 70.0545 42.2328ZM75.236 41.0384C75.236 41.574 75.0688 41.9721 74.7344 42.2328C74.4 42.4936 73.9311 42.6239 73.3275 42.6239H72.0735V45H71.4912V39.4529H73.319C73.9282 39.4529 74.4 39.5861 74.7344 39.8525C75.0688 40.116 75.236 40.5113 75.236 41.0384ZM74.6537 41.0384C74.6537 40.6559 74.5332 40.3796 74.2924 40.2095C74.0515 40.0367 73.7299 39.9503 73.3275 39.9503H72.0735V42.1266H73.3275C73.7299 42.1266 74.0515 42.0416 74.2924 41.8715C74.5332 41.6987 74.6537 41.421 74.6537 41.0384ZM79.7884 45H76.2434V39.4529H79.7884V39.9503H76.8257V41.9353H79.0106V42.4326H76.8257V44.5027H79.7884V45ZM84.7999 45H84.0603L82.4408 42.6239H81.5779V45H80.9956V39.4529H82.8234C83.4326 39.4529 83.9044 39.5861 84.2388 39.8525C84.5732 40.116 84.7404 40.5113 84.7404 41.0384C84.7404 41.2708 84.6993 41.4805 84.6171 41.6675C84.5349 41.8517 84.423 42.009 84.2813 42.1393C84.1396 42.2697 83.9696 42.3745 83.7713 42.4539C83.5757 42.5332 83.3618 42.5814 83.1294 42.5984L84.7999 45ZM84.1368 41.0384C84.1368 40.6615 84.0192 40.3867 83.784 40.2138C83.5516 40.0381 83.2314 39.9503 82.8234 39.9503H81.5779V42.1266H82.8234C83.2314 42.1266 83.5516 42.0416 83.784 41.8715C84.0192 41.6987 84.1368 41.421 84.1368 41.0384Z" fill="white"/>
</svg>
