<svg width="1440" height="216" viewBox="0 0 1440 216" fill="none" xmlns="http://www.w3.org/2000/svg">
<g clip-path="url(#clip0_1_2)">
<line x1="87.5" y1="216" x2="87.5" y2="-4.61017e-09" stroke="white"/>
<line x1="123.5" y1="216" x2="123.5" y2="-4.61017e-09" stroke="white"/>
<line x1="51.5" y1="216" x2="51.5" y2="-4.61017e-09" stroke="white"/>
<line x1="33.5" y1="216" x2="33.5" y2="-4.61017e-09" stroke="white"/>
<line x1="69.5" y1="216" x2="69.5" y2="-4.61017e-09" stroke="white"/>
<line x1="15.5" y1="216" x2="15.5" y2="-4.61017e-09" stroke="white"/>
<line x1="195.5" y1="216" x2="195.5" y2="-4.61017e-09" stroke="white"/>
<line x1="231.5" y1="216" x2="231.5" y2="-4.61017e-09" stroke="white"/>
<line x1="159.5" y1="216" x2="159.5" y2="-4.61017e-09" stroke="white"/>
<line x1="303.5" y1="216" x2="303.5" y2="-4.61017e-09" stroke="white"/>
<line x1="339.5" y1="216" x2="339.5" y2="-4.61017e-09" stroke="white"/>
<line x1="267.5" y1="216" x2="267.5" y2="-4.61017e-09" stroke="white"/>
<line x1="249.5" y1="216" x2="249.5" y2="-4.61017e-09" stroke="white"/>
<line x1="285.5" y1="216" x2="285.5" y2="-4.61017e-09" stroke="white"/>
<line x1="213.5" y1="216" x2="213.5" y2="-4.61017e-09" stroke="white"/>
<line x1="141.5" y1="216" x2="141.5" y2="-4.61017e-09" stroke="white"/>
<line x1="177.5" y1="216" x2="177.5" y2="-4.61017e-09" stroke="white"/>
<line x1="105.5" y1="216" x2="105.5" y2="-4.61017e-09" stroke="white"/>
<line x1="411.5" y1="216" x2="411.5" y2="-4.61017e-09" stroke="white"/>
<line x1="447.5" y1="216" x2="447.5" y2="-4.61017e-09" stroke="white"/>
<line x1="375.5" y1="216" x2="375.5" y2="-4.61017e-09" stroke="white"/>
<line x1="357.5" y1="216" x2="357.5" y2="-4.61017e-09" stroke="white"/>
<line x1="393.5" y1="216" x2="393.5" y2="-4.61017e-09" stroke="white"/>
<line x1="321.5" y1="216" x2="321.5" y2="-4.61017e-09" stroke="white"/>
<line x1="465.5" y1="216" x2="465.5" y2="-4.61017e-09" stroke="white"/>
<line x1="501.5" y1="216" x2="501.5" y2="-4.61017e-09" stroke="white"/>
<line x1="429.5" y1="216" x2="429.5" y2="-4.61017e-09" stroke="white"/>
<line x1="573.5" y1="216" x2="573.5" y2="-4.61017e-09" stroke="white"/>
<line x1="609.5" y1="216" x2="609.5" y2="-4.61017e-09" stroke="white"/>
<line x1="537.5" y1="216" x2="537.5" y2="-4.61017e-09" stroke="white"/>
<line x1="735.5" y1="216" x2="735.5" y2="-4.61017e-09" stroke="white"/>
<line x1="771.5" y1="216" x2="771.5" y2="-4.61017e-09" stroke="white"/>
<line x1="699.5" y1="216" x2="699.5" y2="-4.61017e-09" stroke="white"/>
<line x1="897.5" y1="216" x2="897.5" y2="-4.61017e-09" stroke="white"/>
<line x1="933.5" y1="216" x2="933.5" y2="-4.61017e-09" stroke="white"/>
<line x1="861.5" y1="216" x2="861.5" y2="-4.61017e-09" stroke="white"/>
<line x1="1059.5" y1="216" x2="1059.5" y2="-4.61017e-09" stroke="white"/>
<line x1="1095.5" y1="216" x2="1095.5" y2="-4.61017e-09" stroke="white"/>
<line x1="1023.5" y1="216" x2="1023.5" y2="-4.61017e-09" stroke="white"/>
<line x1="519.5" y1="216" x2="519.5" y2="-4.61017e-09" stroke="white"/>
<line x1="555.5" y1="216" x2="555.5" y2="-4.61017e-09" stroke="white"/>
<line x1="483.5" y1="216" x2="483.5" y2="-4.61017e-09" stroke="white"/>
<line x1="681.5" y1="216" x2="681.5" y2="-4.61017e-09" stroke="white"/>
<line x1="717.5" y1="216" x2="717.5" y2="-4.61017e-09" stroke="white"/>
<line x1="645.5" y1="216" x2="645.5" y2="-4.61017e-09" stroke="white"/>
<line x1="843.5" y1="216" x2="843.5" y2="-4.61017e-09" stroke="white"/>
<line x1="879.5" y1="216" x2="879.5" y2="-4.61017e-09" stroke="white"/>
<line x1="807.5" y1="216" x2="807.5" y2="-4.61017e-09" stroke="white"/>
<line x1="1005.5" y1="216" x2="1005.5" y2="-4.61017e-09" stroke="white"/>
<line x1="1041.5" y1="216" x2="1041.5" y2="-4.61017e-09" stroke="white"/>
<line x1="969.5" y1="216" x2="969.5" y2="-4.61017e-09" stroke="white"/>
<line x1="1167.5" y1="216" x2="1167.5" y2="-4.61017e-09" stroke="white"/>
<line x1="1203.5" y1="216" x2="1203.5" y2="-4.61017e-09" stroke="white"/>
<line x1="1131.5" y1="216" x2="1131.5" y2="-4.61017e-09" stroke="white"/>
<line x1="627.5" y1="216" x2="627.5" y2="-4.61017e-09" stroke="white"/>
<line x1="663.5" y1="216" x2="663.5" y2="-4.61017e-09" stroke="white"/>
<line x1="591.5" y1="216" x2="591.5" y2="-4.61017e-09" stroke="white"/>
<line x1="789.5" y1="216" x2="789.5" y2="-4.61017e-09" stroke="white"/>
<line x1="825.5" y1="216" x2="825.5" y2="-4.61017e-09" stroke="white"/>
<line x1="753.5" y1="216" x2="753.5" y2="-4.61017e-09" stroke="white"/>
<line x1="951.5" y1="216" x2="951.5" y2="-4.61017e-09" stroke="white"/>
<line x1="987.5" y1="216" x2="987.5" y2="-4.61017e-09" stroke="white"/>
<line x1="915.5" y1="216" x2="915.5" y2="-4.61017e-09" stroke="white"/>
<line x1="1113.5" y1="216" x2="1113.5" y2="-4.61017e-09" stroke="white"/>
<line x1="1149.5" y1="216" x2="1149.5" y2="-4.61017e-09" stroke="white"/>
<line x1="1077.5" y1="216" x2="1077.5" y2="-4.61017e-09" stroke="white"/>
<line x1="1221.5" y1="216" x2="1221.5" y2="-4.61017e-09" stroke="white"/>
<line x1="1257.5" y1="216" x2="1257.5" y2="-4.61017e-09" stroke="white"/>
<line x1="1185.5" y1="216" x2="1185.5" y2="-4.61017e-09" stroke="white"/>
<line x1="1275.5" y1="216" x2="1275.5" y2="-4.61017e-09" stroke="white"/>
<line x1="1311.5" y1="216" x2="1311.5" y2="-4.61017e-09" stroke="white"/>
<line x1="1239.5" y1="216" x2="1239.5" y2="-4.61017e-09" stroke="white"/>
<line x1="1329.5" y1="216" x2="1329.5" y2="-4.61017e-09" stroke="white"/>
<line x1="1365.5" y1="216" x2="1365.5" y2="-4.61017e-09" stroke="white"/>
<line x1="1293.5" y1="216" x2="1293.5" y2="-4.61017e-09" stroke="white"/>
<line x1="1383.5" y1="216" x2="1383.5" y2="-4.61017e-09" stroke="white"/>
<line x1="1401.5" y1="216" x2="1401.5" y2="-4.61017e-09" stroke="white"/>
<line x1="1347.5" y1="216" x2="1347.5" y2="-4.61017e-09" stroke="white"/>
<line x1="1440" y1="174.5" x2="-26" y2="174.5" stroke="white"/>
<line x1="1443" y1="132.5" x2="-23" y2="132.5" stroke="white"/>
<line x1="1456" y1="195.5" x2="-10" y2="195.5" stroke="white"/>
<line x1="1440" y1="111.5" x2="-26" y2="111.5" stroke="white"/>
<line x1="1443" y1="69.5" x2="-23" y2="69.5" stroke="white"/>
<line x1="1456" y1="153.5" x2="-10" y2="153.5" stroke="white"/>
<line x1="1440" y1="48.5" x2="-26" y2="48.5" stroke="white"/>
<line x1="1443" y1="27.5" x2="-23" y2="27.5" stroke="white"/>
<line x1="1456" y1="90.5" x2="-10" y2="90.5" stroke="white"/>
</g>
<defs>
<clipPath id="clip0_1_2">
<rect width="1440" height="216" fill="white"/>
</clipPath>
</defs>
</svg>
